<?xml version="1.0" encoding="UTF-8"?>
<!DOCTYPE svg PUBLIC "-//W3C//DTD SVG 1.1//EN" "http://www.w3.org/Graphics/SVG/1.1/DTD/svg11.dtd">
<!-- Creator: CorelDRAW 2020 (64 Bit) -->
<svg xmlns="http://www.w3.org/2000/svg" xml:space="preserve" width="80px" height="100px" version="1.1" style="shape-rendering:geometricPrecision; text-rendering:geometricPrecision; image-rendering:optimizeQuality; fill-rule:evenodd; clip-rule:evenodd"
viewBox="0 0 80 100"
 xmlns:xlink="http://www.w3.org/1999/xlink"
 xmlns:xodm="http://www.corel.com/coreldraw/odm/2003">
 <defs>
  <style type="text/css">
   <![CDATA[
    .fil0 {fill:#f8c200}
   ]]>
  </style>
 </defs>
 <g id="Camada_x0020_1">
  <metadata id="CorelCorpID_0Corel-Layer"/>
  <g id="_2767057757696">
   <path class="fil0" d="M11.86 7.98l45.37 0c0.02,0 13.96,14.96 14.13,15.13l0 70.1c0,1.49 -1.21,2.7 -2.7,2.7l-56.8 0c-1.49,0 -2.7,-1.21 -2.7,-2.7l0 -82.53c0,-1.49 1.21,-2.7 2.7,-2.7zm1.09 5.36l44.24 0 4.34 6.04 6.04 5.97 0 17.18 2.07 3.29 1.72 22.3 -3.79 0.86 0 21.57 -54.62 0 0 -20.28 -3.17 -4.45 -0.62 -9.99 0.99 -8.94 2.8 -4.15 0 -29.4z"/>
   <path class="fil0" d="M5.83 41.79l68.86 0c1.49,0 2.7,1.22 2.7,2.7l0 23.77c0,1.48 -1.21,2.7 -2.7,2.7l-68.86 0c-1.49,0 -2.7,-1.22 -2.7,-2.7l0 -23.77c0,-1.48 1.21,-2.7 2.7,-2.7zm21.21 10.61c-0.94,-0.96 -1.88,-1.68 -2.84,-2.15 -0.97,-0.47 -1.98,-0.7 -3.03,-0.7 -1.83,0 -3.33,0.63 -4.5,1.9 -1.16,1.27 -1.75,2.9 -1.75,4.88 0,1.99 0.58,3.61 1.74,4.84 1.15,1.23 2.65,1.85 4.51,1.85 1.1,0 2.19,-0.23 3.28,-0.69 1.09,-0.46 2.18,-1.15 3.27,-2.07l-0.34 5.76c-0.92,0.63 -1.93,1.11 -3.04,1.44 -1.1,0.33 -2.24,0.5 -3.43,0.5 -1.27,0 -2.49,-0.2 -3.67,-0.6 -1.16,-0.4 -2.24,-0.99 -3.23,-1.77 -1.4,-1.1 -2.46,-2.44 -3.21,-4.02 -0.74,-1.58 -1.11,-3.31 -1.11,-5.18 0,-1.61 0.28,-3.12 0.82,-4.52 0.55,-1.41 1.35,-2.66 2.39,-3.74 1.06,-1.08 2.28,-1.9 3.67,-2.48 1.38,-0.57 2.84,-0.86 4.37,-0.86 1.22,0 2.38,0.17 3.49,0.52 1.1,0.33 2.16,0.85 3.16,1.54l-0.55 5.55zm9.15 10.19l1.13 0c2.26,0 4.03,-0.55 5.31,-1.65 1.27,-1.1 1.91,-2.61 1.91,-4.55 0,-1.94 -0.64,-3.46 -1.91,-4.56 -1.28,-1.11 -3.05,-1.67 -5.31,-1.67l-1.13 0 0 12.43zm-5.11 4.66l0 -21.72 5.75 0c4.04,0 7.22,0.97 9.51,2.9 2.29,1.94 3.43,4.6 3.43,7.96 0,2.02 -0.45,3.81 -1.36,5.37 -0.9,1.56 -2.23,2.85 -3.99,3.86 -1,0.58 -2.08,0.99 -3.25,1.25 -1.17,0.25 -2.62,0.38 -4.34,0.38l-5.75 0zm28.17 -17.76l-0.85 0 0 6.01 1.09 0c1.31,0 2.31,-0.26 2.99,-0.79 0.69,-0.53 1.03,-1.29 1.03,-2.28 0,-1.03 -0.33,-1.78 -1,-2.25 -0.66,-0.46 -1.75,-0.69 -3.26,-0.69zm-5.87 17.76l0 -21.72 5.57 0c1.79,0 3.17,0.12 4.16,0.35 0.98,0.24 1.85,0.63 2.61,1.18 0.8,0.58 1.43,1.29 1.87,2.15 0.45,0.85 0.67,1.75 0.67,2.7 0,1.37 -0.35,2.56 -1.04,3.59 -0.7,1.03 -1.7,1.83 -3,2.42l6.61 9.33 -5.91 0 -5.78 -8.53 -0.74 0 0 8.53 -5.02 0z"/>
   <path class="fil0" d="M54.49 10.16c0,0 15.52,18 15.52,18 0,1.64 -1.34,2.99 -2.99,2.99l-12.53 0c-1.65,0 -2.99,-1.35 -2.99,-2.99l0 -15.01c0,-1.64 1.34,-2.99 2.99,-2.99z"/>
  </g>
 </g>
</svg>
