<?xml version="1.0" encoding="UTF-8"?>
<!DOCTYPE svg PUBLIC "-//W3C//DTD SVG 1.1//EN" "http://www.w3.org/Graphics/SVG/1.1/DTD/svg11.dtd">
<!-- Creator: CorelDRAW 2020 (64 Bit) -->
<svg xmlns="http://www.w3.org/2000/svg" xml:space="preserve" width="174px" height="174px" version="1.1" style="shape-rendering:geometricPrecision; text-rendering:geometricPrecision; image-rendering:optimizeQuality; fill-rule:evenodd; clip-rule:evenodd"
viewBox="0 0 174 174"
 xmlns:xlink="http://www.w3.org/1999/xlink"
 xmlns:xodm="http://www.corel.com/coreldraw/odm/2003">
 <defs>
  <style type="text/css">
   <![CDATA[
    .fil1 {fill:none}
    .fil0 {fill:#98EEEE}
    .fil2 {fill:#98EEEE;fill-rule:nonzero}
   ]]>
  </style>
    <clipPath id="id0">
     <path d="M-968.26 -116.48l392.51 -132.43 0 473.32 -392.51 132.43 0 -473.32z"/>
    </clipPath>
     <clipPath id="id1">
      <path d="M-968.26 -116.48l265.28 -89.5 127.23 0 0 430.39 -392.51 132.43 0 -473.32z"/>
     </clipPath>
     <clipPath id="id2">
      <path d="M-968.26 -116.48l392.51 -132.43 0 473.32 -392.51 132.43 0 -473.32z"/>
     </clipPath>
 </defs>
 <g id="Camada_x0020_1">
  <metadata id="CorelCorpID_0Corel-Layer"/>
  <g id="_2766432570144">
   <polygon class="fil0" points="-968.26,-116.48 -575.75,-248.91 -575.75,224.41 -968.26,356.84 "/>
   <g style="clip-path:url(#id0)">
    <g>
    </g>
    <g style="clip-path:url(#id1)">
     <image x="-1053.13" y="-205.98" width="579.66" height="579.66" xlink:href="detalhe2_Images\detalhe2_ImgID1.png"/>
    </g>
    <g style="clip-path:url(#id2)">
    </g>
   </g>
   <polygon class="fil1" points="-968.26,-116.48 -575.75,-248.91 -575.75,224.41 -968.26,356.84 "/>
   <path class="fil0" d="M-968.26 -267.05l0 132.43 392.51 -132.43 -392.51 0zm12.78 24.69l0 72.34 214.4 -72.34 -214.4 0z"/>
   <path class="fil0" d="M-575.75 370.03l0 -132.43 -392.51 132.43 392.51 0zm-12.78 -24.69l0 -72.33 -214.4 72.33 214.4 0z"/>
  </g>
  <path class="fil2" d="M87.46 162.28c-2.17,0 -4.32,-0.11 -6.45,-0.29l0 -7.05c-7.95,-0.76 -15.51,-2.85 -22.43,-6.12 -1.26,2 -2.55,3.98 -3.85,5.95 -16.54,-8.03 -29.71,-21.96 -36.77,-39.03 2.12,-0.96 4.23,-1.92 6.34,-2.88 -3.25,-7.95 -5.06,-16.64 -5.06,-25.75 0,-4.98 0.55,-9.82 1.58,-14.49 -2.19,-0.79 -4.42,-1.5 -6.65,-2.17 2.6,-11.43 7.8,-21.88 14.95,-30.68 1.97,1.3 3.92,2.61 5.84,3.97 5.07,-6.09 11.14,-11.31 18.01,-15.36 -1.18,-2.03 -2.34,-4.06 -3.49,-6.11 11.16,-6.56 24.13,-10.33 37.98,-10.33 0.29,0 0.58,0.01 0.87,0.02l0 6.95c11.19,0.14 21.71,3.01 30.99,7.94 1.12,-2.05 2.16,-4.14 3.13,-6.25 5.82,3.07 11.19,6.88 15.98,11.31 -1.41,1.87 -2.82,3.73 -4.22,5.6 11.4,10.77 19.12,25.39 21,41.78l7.02 0c0.27,2.57 0.41,5.18 0.41,7.82 0,13.22 -3.44,25.65 -9.46,36.46 -2.03,-1.2 -4.1,-2.33 -6.21,-3.33 -7.74,13.8 -20.06,24.69 -34.97,30.46 0.68,2.24 1.35,4.48 2.01,6.73 -8.26,3.13 -17.2,4.85 -26.55,4.85zm69.44 -35.38c1.93,1.08 3.87,2.12 5.85,3.08 6.6,-11.62 10.62,-24.91 11.21,-39.13l-6.52 -0.2c0.05,-1.18 0.09,-2.35 0.09,-3.54 0,-13.95 -3.59,-27.07 -9.89,-38.49 1.9,-1.02 3.8,-2.04 5.71,-3.03 -5.03,-9.2 -11.7,-17.39 -19.58,-24.22 -1.26,1.79 -2.56,3.56 -3.86,5.32 -9.41,-8.18 -20.73,-14.2 -33.2,-17.29 0.8,-2.12 1.6,-4.23 2.3,-6.38 -6.18,-1.64 -12.63,-2.62 -19.3,-2.83 -11.74,-0.36 -22.99,1.67 -33.34,5.6 0.9,2.16 1.8,4.32 2.7,6.47 -18.69,7.12 -34.04,21.03 -43.02,38.71 -2.02,-1.36 -4.02,-2.74 -6.01,-4.14 -4.88,9.23 -8.08,19.45 -9.34,30.31l7.31 0.22c-0.39,3.2 -0.61,6.45 -0.61,9.75 0,9.22 1.58,18.06 4.46,26.31 -2.36,0.63 -4.72,1.26 -7.08,1.87 6.71,19.57 20.23,36.02 37.77,46.54 1.29,-2.01 2.49,-4.07 3.61,-6.16 12.07,7.3 26.2,11.5 41.3,11.5 2.04,0 4.06,-0.1 6.06,-0.25l-0.22 7.02c21.74,-1.56 41.38,-11.16 55.85,-25.91 -1.74,-1.41 -3.49,-2.8 -5.24,-4.2 5.05,-5.02 9.41,-10.72 12.99,-16.93z"/>
 </g>
</svg>
