<?xml version="1.0" encoding="UTF-8"?>
<!DOCTYPE svg PUBLIC "-//W3C//DTD SVG 1.1//EN" "http://www.w3.org/Graphics/SVG/1.1/DTD/svg11.dtd">
<!-- Creator: CorelDRAW 2020 (64 Bit) -->
<svg xmlns="http://www.w3.org/2000/svg" xml:space="preserve" width="150px" height="150px" version="1.1" style="shape-rendering:geometricPrecision; text-rendering:geometricPrecision; image-rendering:optimizeQuality; fill-rule:evenodd; clip-rule:evenodd"
viewBox="0 0 150 150"
 xmlns:xlink="http://www.w3.org/1999/xlink"
 xmlns:xodm="http://www.corel.com/coreldraw/odm/2003">
 <defs>
  <style type="text/css">
   <![CDATA[
    .fil0 {fill:#98EEEE;fill-rule:nonzero}
   ]]>
  </style>
 </defs>
 <g id="Camada_x0020_1">
  <metadata id="CorelCorpID_0Corel-Layer"/>
  <g id="_2766966897312">
   <path class="fil0" d="M73.82 104.53c2.62,0 3.93,-0.13 3.93,-0.38 0,-0.17 -0.74,-0.38 -2.22,-0.64 -1.48,-0.25 -2.81,-0.38 -3.99,-0.38 -1.44,0 -2.15,0.17 -2.15,0.51 0,0.59 1.47,0.89 4.43,0.89zm-56.27 -1.52c-0.51,-0.77 -1.39,-0.77 -2.66,0 0.08,0.42 0.42,0.67 1.01,0.76 0.68,0 1.14,-0.07 1.4,-0.19 0.25,-0.13 0.33,-0.32 0.25,-0.57zm13.56 -76.05c-0.76,-2.62 -1.14,-4.18 -1.14,-4.69 0,-0.5 0.38,-0.76 1.14,-0.76 1.01,0 1.52,0.8 1.52,2.41 0,1.01 0.11,1.61 0.32,1.77 0.21,0.17 0.78,0.22 1.71,0.13 1.77,-0.42 4.35,-0.76 7.73,-1.01 1.86,-0.26 3.25,-0.38 4.18,-0.38 1.1,0 1.9,0.29 2.41,0.88 0.25,0.26 0.38,0.6 0.38,1.02 0,1.69 -6.89,20.95 -20.66,57.79 -3.04,8.11 -4.48,12.25 -4.31,12.42 0.17,0.17 8.66,0.64 25.48,1.4 12.84,0.67 20.85,1.26 24.02,1.77 3.16,0.51 4.75,1.48 4.75,2.92 0,0.76 1.14,1.69 3.42,2.78 2.11,0.93 3.17,1.65 3.17,2.16 0,0.5 6.97,0.76 20.91,0.76 10.39,0 16.65,0.06 18.76,0.19 2.11,0.13 3.46,0.57 4.05,1.33l0.89 1.14c0,0.25 -0.84,0.42 -2.53,0.51 -0.43,0 -2.07,0.04 -4.95,0.12 -2.87,0.09 -6.8,0.17 -11.78,0.26 -4.99,0.08 -9.72,0.17 -14.2,0.25l-28.13 0.63 -4.19 -1.9c-2.03,-0.93 -4.64,-1.56 -7.86,-1.9 -3.21,-0.34 -11.23,-0.84 -24.08,-1.52l-27.75 -1.65c-0.17,-0.17 0.97,-3.63 3.42,-10.39l3.55 -10.14 2.66 0.51c0.85,0.17 1.35,0.25 1.52,0.25 0.59,0 1.1,-0.25 1.52,-0.76 0.42,-0.51 1.06,-1.6 1.9,-3.29 1.69,-3.55 4.35,-12.55 7.99,-27l5.7 -22.69 -1.52 -5.32z"/>
   <path class="fil0" d="M63.03 64.82c-0.25,-0.42 -0.63,-0.63 -1.14,-0.63 -0.51,0 -0.99,0.19 -1.46,0.57 -0.46,0.38 -0.69,0.82 -0.69,1.33 0,0.76 0.92,1.14 2.78,1.14 1.1,0 2.03,-0.17 2.79,-0.51 1.02,-0.34 1.44,-0.8 1.27,-1.39 -0.17,-0.42 -0.68,-0.51 -1.52,-0.25 -1.01,0.33 -1.69,0.25 -2.03,-0.26zm42.84 -5.32c0.67,0 0.59,-0.42 -0.26,-1.27 -0.08,-0.17 -0.16,-0.25 -0.25,-0.25 -0.25,0 -0.38,0.25 -0.38,0.76 0,0.51 0.3,0.76 0.89,0.76zm0.63 -3.04c-0.67,0 -0.84,0.17 -0.51,0.5 0.34,0.34 0.68,0.34 1.02,0 0,-0.25 -0.17,-0.42 -0.51,-0.5zm-40.43 -16.23c8.28,-16.3 12.51,-24.46 12.68,-24.46l1.77 0.76c0.68,0.34 1.01,0.68 1.01,1.02 0,0.34 -0.25,1.01 -0.76,2.03 -0.76,1.52 -0.93,2.36 -0.5,2.53 0.25,0.25 2.24,0.55 5.95,0.89l5.45 0.5 2.54 18.51c1.6,12 2.66,18.59 3.17,19.77 0.34,0.76 0.97,0.21 1.9,-1.65l0.25 -0.76c3.04,-6.84 6.87,-14.95 11.47,-24.33 4.61,-9.38 7.29,-14.58 8.05,-15.59 0.93,-1.44 1.52,-1.99 1.77,-1.65 0.09,0.09 0.22,0.38 0.38,0.89 0.34,0.84 0.87,1.39 1.59,1.65 0.72,0.25 2.34,0.59 4.88,1.01 3.55,0.59 5.66,1.06 6.34,1.39 0.67,0.34 1.01,1.1 1.01,2.29 0,0.93 0.23,1.68 0.7,2.28 0.46,0.59 1.45,1.35 2.97,2.28l4.19 2.66c0,3.13 -1.23,11.83 -3.68,26.11 -2.53,15.54 -3.8,24.42 -3.8,26.61 0,1.27 0.13,2.33 0.38,3.17 0.34,1.52 0.51,2.49 0.51,2.92 0,1.26 -0.97,4.35 -2.92,9.25l-3.29 8.36 -2.67 -0.12 -2.78 -0.26 -1.78 -9.25c-0.84,-4.22 -1.27,-7.86 -1.27,-10.9l0 -0.63c1.02,-6 1.99,-17.11 2.92,-33.33 0.34,-5.58 0.63,-9.26 0.89,-11.03 0.33,-1.94 0.25,-2.92 -0.26,-2.92 -0.34,0 -1.69,2.48 -4.05,7.42 -2.37,4.94 -4.52,9.69 -6.47,14.26 -0.76,1.94 -1.35,2.91 -1.77,2.91 -0.25,0 -0.47,0.51 -0.63,1.52 -0.09,1.02 -2.22,6.09 -6.41,15.21 -4.18,9.13 -6.48,13.77 -6.9,13.94l-0.13 0c-0.84,0 -3.08,-1.46 -6.72,-4.37 -3.63,-2.92 -5.57,-4.84 -5.83,-5.77 -0.33,-1.09 -0.5,-2.24 -0.5,-3.42 0,-1.6 0.34,-2.41 1.01,-2.41 0.34,0 0.76,0.43 1.27,1.27 0.25,0.51 0.59,0.76 1.01,0.76 0.68,0 1.19,-0.76 1.52,-2.28 0.09,-0.84 0.55,-1.01 1.4,-0.51 0.67,0.42 0.72,1.02 0.12,1.78 -0.33,0.33 -0.52,0.59 -0.57,0.76 -0.04,0.17 0.07,0.29 0.32,0.38 0.25,0.08 0.68,0.12 1.27,0.12 0.84,0 1.37,-0.14 1.58,-0.44 0.21,-0.29 0.32,-0.95 0.32,-1.96 0,-1.52 -0.38,-2.28 -1.14,-2.28 -0.17,0 -0.76,0.08 -1.78,0.25l-1.26 0c-1.44,0 -2.41,-0.13 -2.92,-0.38 -0.84,-0.42 -1.31,-0.17 -1.39,0.76 0,0.34 -0.04,0.51 -0.13,0.51 -0.25,0 -0.63,-1.08 -1.14,-3.24 -0.51,-2.15 -0.8,-3.9 -0.89,-5.26l0 -3.16 13.06 0.38c2.53,0.08 5.36,0.12 8.49,0.12 2.87,0 4.31,-0.21 4.31,-0.63 0,-0.59 -0.89,-0.97 -2.66,-1.14 -1.78,-0.17 -5.24,-0.34 -10.4,-0.51 -8.62,-0.34 -13.01,-0.59 -13.18,-0.76 -0.34,-0.34 -0.97,-4.01 -1.9,-11.03 -1.01,-7.18 -1.56,-10.77 -1.65,-10.77 -0.33,0 -4.09,7.23 -11.28,21.67 -10.39,20.79 -16.22,32.49 -17.49,35.11l-5.32 1.52c-3.46,1.02 -5.57,1.73 -6.34,2.16 -0.5,0.25 -2.62,5.36 -6.33,15.33 -3.72,9.89 -5.75,15 -6.09,15.34 -0.25,0.25 -0.5,0.38 -0.76,0.38 -0.67,0 -1.43,-0.7 -2.28,-2.09 -0.84,-1.4 -1.52,-3.15 -2.03,-5.26l-1.26 -5.2 1.9 -3.29c0.84,-1.53 1.56,-2.54 2.15,-3.05 0.59,-0.5 1.44,-0.8 2.54,-0.88l2.79 -0.38 6.33 -14.58c3.13,-7.18 6.42,-14.19 9.89,-21.04 3.46,-6.84 5.49,-10.39 6.08,-10.64 0.42,-0.17 0.63,-0.68 0.63,-1.52 0,-0.76 4.19,-9.3 12.55,-25.61z"/>
  </g>
 </g>
</svg>
