<?xml version="1.0" encoding="UTF-8"?>
<!DOCTYPE svg PUBLIC "-//W3C//DTD SVG 1.1//EN" "http://www.w3.org/Graphics/SVG/1.1/DTD/svg11.dtd">
<!-- Creator: CorelDRAW 2020 (64 Bit) -->
<svg xmlns="http://www.w3.org/2000/svg" xml:space="preserve" width="200px" height="150px" version="1.1" style="shape-rendering:geometricPrecision; text-rendering:geometricPrecision; image-rendering:optimizeQuality; fill-rule:evenodd; clip-rule:evenodd"
viewBox="0 0 200 150"
 xmlns:xlink="http://www.w3.org/1999/xlink"
 xmlns:xodm="http://www.corel.com/coreldraw/odm/2003">
 <defs>
  <style type="text/css">
   <![CDATA[
    .fil0 {fill:#F8C200;fill-rule:nonzero}
   ]]>
  </style>
 </defs>
 <g id="Camada_x0020_1">
  <metadata id="CorelCorpID_0Corel-Layer"/>
  <path class="fil0" d="M191.68 28.72c-0.62,-0.88 -1.25,-1.77 -1.87,-2.66l0 6.37 1.87 2.66 0 1.25 -1.87 -2.66 0 6.48 1.87 2.67 0 92.19c0,0 -40.69,0 -40.69,0l-48.61 0 -1.9 -2.69 -4.56 0 1.9 2.69 -0.88 0 -1.9 -2.69 -4.48 0 1.9 2.69 -0.94 0 -1.9 -2.69 -4.56 0 1.9 2.69 -0.89 0 -1.89 -2.69 -4.48 0 1.9 2.69 -49.33 0 -1.89 -2.69 -4.56 0 1.89 2.69 -0.88 0 -1.9 -2.69 -4.47 0 1.89 2.69 -1.14 0 -10.54 -14.98 0 -1.62c0.63,0.88 1.25,1.77 1.87,2.65l0 -6.36 -1.87 -2.66 0 -1.26 1.87 2.66 0 -6.48 -1.87 -2.66 0 -77.82 10.09 -14.35 79.23 0 1.88 2.67 4.56 0 -1.88 -2.67 2.76 2.67 4.48 0 -1.88 -2.67 2.82 2.67 4.56 0 -1.87 -2.67 2.75 2.67 4.48 0 -1.87 -2.67 49.32 0 1.87 2.67 4.56 0 -1.87 -2.67 2.75 2.67 4.48 0 -1.87 -2.67 1.55 0 10.11 14.38 0 2.2zm-185.14 -20.88c0,3.7 0,130.26 0,131.49 7.47,-0.08 187.07,0 189.27,0l0 -131.49 -189.27 0z"/>
  <path class="fil0" d="M22 80.54l0 -14.6 12.23 0c1.51,0 2.68,0.38 3.52,1.14 0.84,0.76 1.26,1.92 1.26,3.47 0,1.56 -0.42,2.71 -1.26,3.47 -0.84,0.77 -2.01,1.15 -3.52,1.15l-8.97 0 0 5.37 -3.26 0zm11.84 -11.95l-8.58 0 0 3.9 8.58 0.02c0.6,0 1.06,-0.15 1.38,-0.45 0.32,-0.3 0.48,-0.8 0.48,-1.51 0,-0.72 -0.16,-1.23 -0.48,-1.52 -0.32,-0.29 -0.78,-0.44 -1.38,-0.44zm7.21 11.95l0 -14.6 12.23 0c1.51,0 2.69,0.38 3.52,1.14 0.84,0.76 1.26,1.92 1.26,3.47 0,1.32 -0.31,2.36 -0.92,3.11 -0.61,0.75 -1.48,1.22 -2.61,1.41l3.37 5.47 -3.72 0 -3.12 -5.37 -6.74 0 0 5.37 -3.27 0zm11.84 -11.95l-8.57 0 0 3.9 8.57 0.02c0.6,0 1.06,-0.15 1.38,-0.45 0.32,-0.3 0.48,-0.8 0.48,-1.51 0,-0.72 -0.16,-1.23 -0.48,-1.52 -0.32,-0.29 -0.78,-0.44 -1.38,-0.44zm14.99 12.05c-2.6,0 -4.61,-0.62 -6.04,-1.87 -1.43,-1.24 -2.15,-3.09 -2.15,-5.54 0,-2.44 0.72,-4.28 2.15,-5.53 1.43,-1.24 3.49,-1.86 6.18,-1.86l3.68 0c2.7,0 4.76,0.62 6.19,1.86 1.43,1.25 2.14,3.09 2.14,5.53 0,2.45 -0.71,4.3 -2.14,5.54 -1.43,1.25 -3.46,1.87 -6.09,1.87l-3.92 0zm0.37 -12.15c-1.51,0 -2.69,0.27 -3.53,0.82 -0.85,0.54 -1.38,1.41 -1.6,2.59l13.48 0c-0.22,-1.18 -0.75,-2.05 -1.59,-2.59 -0.85,-0.55 -2.02,-0.82 -3.54,-0.82l-3.22 0zm0.06 9.5l3.16 0c1.53,0 2.71,-0.28 3.55,-0.82 0.84,-0.55 1.36,-1.42 1.58,-2.61l-13.48 0c0.22,1.19 0.75,2.06 1.6,2.61 0.84,0.54 2.04,0.82 3.59,0.82zm18.64 2.65c-2.01,0 -3.49,-0.36 -4.44,-1.07 -0.94,-0.72 -1.42,-1.82 -1.42,-3.3 0,-0.35 0.04,-0.71 0.13,-1.08l3.26 0c-0.02,0.18 -0.04,0.35 -0.06,0.51 -0.01,0.16 -0.02,0.3 -0.02,0.41 0,0.75 0.28,1.25 0.84,1.5 0.56,0.25 1.31,0.38 2.27,0.38l1.28 0c1.16,0 1.98,-0.19 2.46,-0.57 0.49,-0.37 0.73,-1.07 0.73,-2.11l0 -9.37 3.26 0 0 9.37c0,1.2 -0.18,2.19 -0.55,2.98 -0.36,0.79 -0.98,1.38 -1.83,1.77 -0.86,0.39 -2.03,0.58 -3.52,0.58l-2.39 0zm11.15 -0.1l0 -14.6 16.01 0 0 2.65 -12.74 0 0 3.23 11.56 0 0 2.65 -11.56 0 0 3.41 12.74 0 0 2.66 -16.01 0zm17.75 -7.21l0 -7.39 17.97 0 0 7.39 -3.31 0 0 -4.74 -4.45 0 0 11.95 -3.27 0 0 -11.95 -3.63 0 0 4.74 -3.31 0zm27.69 7.31c-2.6,0 -4.62,-0.62 -6.05,-1.87 -1.43,-1.24 -2.14,-3.09 -2.14,-5.54 0,-2.44 0.71,-4.28 2.14,-5.53 1.43,-1.24 3.49,-1.86 6.19,-1.86l3.68 0c2.69,0 4.75,0.62 6.18,1.86 1.43,1.25 2.15,3.09 2.15,5.53 0,2.45 -0.72,4.3 -2.15,5.54 -1.43,1.25 -3.45,1.87 -6.08,1.87l-3.92 0zm0.37 -12.15c-1.52,0 -2.69,0.27 -3.54,0.82 -0.84,0.54 -1.37,1.41 -1.59,2.59l13.48 0c-0.22,-1.18 -0.75,-2.05 -1.6,-2.59 -0.84,-0.55 -2.02,-0.82 -3.53,-0.82l-3.22 0zm0.06 9.5l3.16 0c1.53,0 2.71,-0.28 3.54,-0.82 0.84,-0.55 1.37,-1.42 1.59,-2.61l-13.48 0c0.22,1.19 0.75,2.06 1.59,2.61 0.85,0.54 2.04,0.82 3.6,0.82zm20.09 2.55l0 -4.33c0,-1.36 0.38,-2.42 1.14,-3.17 0.77,-0.74 1.88,-1.12 3.33,-1.12l6.72 0c1.29,0 1.94,-0.55 1.94,-1.65 0,-1.11 -0.65,-1.66 -1.94,-1.66l-10.86 0 0 -2.65 11.49 0c1.42,0 2.52,0.38 3.3,1.14 0.78,0.76 1.17,1.82 1.17,3.17 0,1.35 -0.39,2.4 -1.17,3.16 -0.78,0.77 -1.88,1.15 -3.3,1.15l-6.9 0c-0.58,0 -1.02,0.14 -1.32,0.43 -0.29,0.3 -0.44,0.71 -0.44,1.24l0 1.65 12.75 0 0 2.64 -15.91 0z"/>
 </g>
</svg>
